<svg width="280" height="58" viewBox="0 0 280 58" fill="none" xmlns="http://www.w3.org/2000/svg">
<path d="M37.8348 8.1158L37.76 9.16327C37.352 9.23224 37.0422 9.58529 37.0422 10.012C37.0422 10.3966 37.2947 10.7204 37.6407 10.8315L36.9463 20.5474L37.9038 23.4209L38.8612 20.5474L38.1668 10.8315C38.514 10.7204 38.7654 10.3954 38.7654 10.012C38.7654 9.58646 38.4556 9.23224 38.0487 9.16327L37.9786 8.19997L39.6375 9.16093L39.7041 9.19951L41.0204 9.96289L40.6627 14.5514L40.7083 14.5678C40.6113 15.1768 40.5365 15.7847 40.4897 16.3482C40.2652 17.2624 40.1343 18.2128 40.1343 19.1948H40.1554C40.1554 19.203 40.1542 19.2089 40.1542 19.2171C40.1402 19.2182 40.125 19.2206 40.1109 19.2217C39.2599 19.369 38.8741 21.1846 39.247 23.2736C39.5907 25.1944 40.4558 26.6779 41.2543 26.7913C42.2713 29.5245 43.8799 32.1806 45.8696 34.1224C46.9943 35.2225 48.2416 36.0946 49.5732 36.6218C50.4874 36.9842 51.4413 37.1841 52.4233 37.1841C53.4018 37.1841 54.3569 36.983 55.2723 36.6218C56.6506 36.0759 57.9377 35.1628 59.0951 34.0078C61.0357 32.0707 62.6034 29.4556 63.6006 26.7679C64.3663 26.5435 65.1717 25.1079 65.4991 23.2748C65.8533 21.2839 65.5166 19.5491 64.7497 19.2591C64.7754 18.774 64.7953 18.283 64.7941 17.7791C64.7906 16.5154 64.6504 15.3311 64.3978 14.2276L64.0156 10.3908L65.4243 9.57594L66.1409 9.1621L69.1301 7.43191C69.3184 7.24486 69.3184 6.94208 69.1313 6.75504L53.2288 0.139409C53.0417 -0.0464695 52.739 -0.0464695 52.5519 0.139409L36.6506 6.75504C36.4623 6.94325 36.4623 7.24486 36.6506 7.43191L37.8348 8.1158ZM41.4483 21.4172C41.5302 21.1729 41.6424 20.9811 41.7827 20.8794C41.8446 20.8362 41.9078 20.807 41.9779 20.7953C42.1357 20.7672 42.3017 20.8292 42.4631 20.9589C42.4642 20.9589 42.4642 20.9589 42.4642 20.9589C42.4654 20.9461 42.4654 20.9332 42.4677 20.9204C42.5121 20.4843 42.9915 17.3501 45.5365 16.3506L50.6358 18.2339C52.8886 19.1189 52.8886 19.1189 55.1425 18.2339L58.8659 16.9129C59.3137 17.1385 59.7427 17.3781 60.1741 17.5781C60.1449 17.2238 59.9449 16.8649 59.8386 16.5668L60.222 16.4301C60.2314 16.4347 60.2419 16.4382 60.2512 16.4429C61.0287 17.2706 61.7815 18.6594 62.3789 20.9297C62.3801 20.9391 62.3812 20.9484 62.3812 20.9589C62.3824 20.9578 62.3847 20.9566 62.3859 20.9543C62.3859 20.9554 62.3871 20.9566 62.3871 20.9578L62.3953 20.9472C62.5531 20.8245 62.7144 20.766 62.8676 20.7929C62.9073 20.7999 62.9459 20.8128 62.981 20.8292C63.4778 21.0618 63.6906 22.2227 63.4533 23.546C63.2744 24.5631 62.8769 25.3978 62.4549 25.7544C62.2842 25.8981 62.1135 25.9636 61.9487 25.9356C61.8563 25.9204 61.7698 25.8736 61.695 25.8035C60.7738 28.6723 59.0167 31.5271 56.7991 33.2643C55.4757 34.2989 53.991 34.9349 52.4198 34.9349C50.8837 34.9349 49.4271 34.327 48.1271 33.3309C45.8696 31.6031 44.0787 28.7085 43.1446 25.8046C43.0698 25.8748 42.9844 25.9215 42.8921 25.9367C42.7015 25.9706 42.4993 25.8736 42.3052 25.6819C41.9148 25.2902 41.5559 24.4976 41.3864 23.5472C41.3758 23.4852 41.37 23.4256 41.3618 23.3625C41.3758 22.6985 41.4027 22.0532 41.4483 21.4172Z" fill="black"/>
<path d="M105.056 42.9038C102.987 35.7878 99.1665 35.5423 98.3447 35.3494C96.7232 34.9695 94.7627 35.1308 93.7164 34.8035C93.5329 36.3384 90.5822 37.5554 86.971 37.5554C83.3599 37.5554 80.4104 36.3373 80.2256 34.8035C79.1793 35.1308 77.22 34.9695 75.5997 35.3494C75.0807 35.471 73.3704 35.6171 71.6577 37.4899C73.8146 38.7724 76.3912 41.4471 78.0886 47.29C78.2932 47.9961 78.3552 48.7268 78.3224 49.4516C81.1153 49.8198 84.1688 49.973 86.9699 49.9706C94.1735 49.9741 103.086 48.9863 104.78 45.782C105.237 44.9215 105.337 43.8706 105.056 42.9038Z" fill="black"/>
<path d="M75.8933 13.2255L75.8372 14.0099C75.532 14.0613 75.2994 14.3267 75.2994 14.6459C75.2994 14.9346 75.4876 15.1778 75.7471 15.2608L75.2269 22.5474L75.9447 24.702L76.6625 22.5474L76.1435 15.2608C76.4042 15.1778 76.5924 14.9346 76.5924 14.6459C76.5924 14.3267 76.3597 14.0613 76.0546 14.0099L76.002 13.2863L77.2459 14.0064L77.2961 14.0356L78.284 14.6084L78.0151 18.0501L78.049 18.063C77.9765 18.5201 77.9204 18.976 77.8842 19.398C77.717 20.0842 77.6176 20.7962 77.6176 21.5327H77.6328C77.6328 21.5385 77.6328 21.5432 77.6328 21.5491C77.6223 21.5502 77.6106 21.5514 77.6001 21.5526C76.963 21.6636 76.673 23.0244 76.9513 24.5921C77.2108 26.0312 77.8584 27.1453 78.457 27.2294C79.2192 29.2788 80.428 31.272 81.9197 32.7286C82.7638 33.5528 83.6978 34.2075 84.6974 34.6038C85.3836 34.875 86.0979 35.0258 86.8344 35.0258C87.5685 35.0258 88.2852 34.875 88.9702 34.6038C90.0037 34.1946 90.9705 33.5084 91.8379 32.6409C93.2934 31.1902 94.4682 29.2285 95.2164 27.2119C95.7904 27.0436 96.3948 25.9669 96.6403 24.5921C96.9057 23.0992 96.6544 21.7981 96.0792 21.5806C96.0991 21.217 96.1131 20.8488 96.1119 20.47C96.1108 19.5219 96.0044 18.6346 95.815 17.8069L95.5297 14.9299L96.5842 14.3185L97.1232 14.0076L99.3654 12.7099C99.5057 12.5696 99.5057 12.3417 99.3654 12.2026L87.4388 7.23996C87.2985 7.10084 87.0717 7.10084 86.9314 7.23996L75.0048 12.2037C74.8645 12.344 74.8645 12.5708 75.0048 12.7111L75.8933 13.2255ZM78.6031 23.2009C78.6651 23.0174 78.7493 22.8736 78.8545 22.7964C78.9012 22.7649 78.948 22.7427 79.0018 22.7333C79.1187 22.7123 79.2438 22.7578 79.3653 22.856C79.3677 22.8467 79.3677 22.8362 79.37 22.828C79.4028 22.5007 79.7628 20.1509 81.6707 19.4004L85.4958 20.8126C87.1851 21.4766 87.1851 21.4766 88.8755 20.8126L91.6696 19.8212C92.0039 19.9907 92.3266 20.1708 92.6492 20.3204C92.627 20.055 92.4785 19.7861 92.3979 19.5617L92.6854 19.46C92.6925 19.4635 92.7007 19.4658 92.7088 19.4693C93.2922 20.0901 93.8557 21.1317 94.3046 22.8338C94.3046 22.8408 94.3057 22.8479 94.3057 22.856C94.3069 22.856 94.3093 22.8549 94.3093 22.8525C94.3093 22.8525 94.3104 22.8537 94.3104 22.8549L94.3174 22.8479C94.4355 22.7543 94.5559 22.7123 94.6717 22.7321C94.7009 22.738 94.7313 22.7473 94.757 22.759C95.1288 22.9332 95.2877 23.803 95.1112 24.7967C94.9768 25.5589 94.6775 26.1855 94.3619 26.4532C94.2344 26.5596 94.1047 26.6087 93.9831 26.5888C93.9129 26.5771 93.8498 26.542 93.7937 26.4894C93.1016 28.6417 91.7841 30.7833 90.1217 32.0857C89.1281 32.8607 88.0139 33.3377 86.8355 33.3377C85.6829 33.3377 84.591 32.8806 83.616 32.1359C81.9221 30.8395 80.5788 28.6685 79.8797 26.4906C79.8224 26.5432 79.7593 26.5783 79.6903 26.5888C79.5465 26.6145 79.3957 26.542 79.2496 26.3971C78.9562 26.1037 78.6896 25.5086 78.5599 24.7967C78.5517 24.7499 78.547 24.7055 78.5423 24.6587C78.5493 24.163 78.5704 23.6791 78.6031 23.2009Z" fill="black"/>
<path d="M27.1218 47.2877C28.8204 41.446 31.397 38.7724 33.5539 37.4899C31.8424 35.6171 30.1321 35.4698 29.6118 35.3494C27.9916 34.9695 26.0299 35.1308 24.9848 34.8035C24.8012 36.3384 21.8517 37.5554 18.2405 37.5554C14.6294 37.5554 11.6787 36.3373 11.4963 34.8035C10.45 35.1308 8.48954 34.9695 6.86925 35.3494C6.04741 35.5423 2.22463 35.7878 0.156591 42.9038C-0.12398 43.8694 -0.0246117 44.9215 0.431316 45.782C2.12526 48.9863 11.0369 49.9741 18.2405 49.9706C21.0404 49.973 24.0951 49.8198 26.8868 49.4516C26.8552 48.7279 26.916 47.9961 27.1218 47.2877Z" fill="black"/>
<path d="M7.16255 13.226L7.10644 14.0116C6.80132 14.063 6.56751 14.3284 6.56751 14.6476C6.56751 14.9363 6.75689 15.1795 7.01642 15.2625L6.49503 22.5491L7.21282 24.7037L7.93178 22.5491L7.41039 15.2625C7.67109 15.1795 7.8593 14.9363 7.8593 14.6476C7.8593 14.3284 7.62666 14.063 7.32154 14.0116L7.26893 13.288L8.51397 14.0081L8.56307 14.0373L9.55091 14.6102L9.2832 18.0518L9.3171 18.0647C9.24345 18.5218 9.18734 18.9777 9.15344 19.3997C8.98392 20.086 8.88572 20.7979 8.88572 21.5344H8.90209C8.90209 21.5402 8.90092 21.5449 8.90092 21.5508C8.8904 21.5519 8.87988 21.5531 8.86936 21.5543C8.23223 21.6653 7.9423 23.0261 8.22054 24.5938C8.4789 26.0329 9.12655 27.147 9.72627 27.2312C10.4885 29.2805 11.6961 31.2737 13.1878 32.7303C14.0319 33.5545 14.9659 34.2092 15.9655 34.6055C16.6505 34.8767 17.3671 35.0275 18.1025 35.0275C18.8366 35.0275 19.5533 34.8767 20.2395 34.6055C21.2729 34.1963 22.2386 33.5101 23.106 32.6427C24.5614 31.1919 25.7363 29.2302 26.4845 27.2136C27.0585 27.0453 27.6618 25.9686 27.9084 24.5938C28.1738 23.1009 27.9213 21.7998 27.3461 21.5823C27.3672 21.2188 27.3812 20.8505 27.38 20.4717C27.3777 19.5236 27.2725 18.6363 27.0831 17.8087L26.7967 14.9316L27.8523 14.3202L28.3901 14.0093L30.6323 12.7116C30.7737 12.5713 30.7737 12.3434 30.6335 12.2043L18.7057 7.24167C18.5654 7.10255 18.3386 7.10255 18.1983 7.24167L6.27174 12.2043C6.13029 12.3445 6.13029 12.5713 6.27174 12.7116L7.16255 13.226ZM9.8724 23.2015C9.93436 23.0179 10.0185 22.8741 10.1226 22.797C10.1693 22.7654 10.2173 22.7432 10.2687 22.7338C10.3868 22.7128 10.5119 22.7584 10.6323 22.8566C10.6334 22.8566 10.6334 22.8566 10.6334 22.8566C10.6334 22.8472 10.6334 22.8367 10.6358 22.8285C10.6685 22.5012 11.0286 20.1514 12.9376 19.4009L16.7616 20.8131C18.4508 21.4771 18.4508 21.4771 20.1413 20.8131L22.9341 19.8217C23.2696 19.9913 23.5923 20.1713 23.915 20.3209C23.8928 20.0556 23.7443 19.7867 23.6648 19.5622L23.9524 19.4605C23.9582 19.464 23.9676 19.4664 23.9746 19.4699C24.5579 20.0906 25.1214 21.1322 25.5703 22.8344C25.5715 22.8414 25.5715 22.8484 25.5715 22.8566C25.5727 22.8566 25.5738 22.8554 25.575 22.8531C25.575 22.8531 25.5762 22.8543 25.5762 22.8554L25.582 22.8484C25.7001 22.7549 25.8217 22.7128 25.9362 22.7327C25.9655 22.7385 25.9947 22.7479 26.0204 22.7596C26.3922 22.9337 26.5535 23.8035 26.3758 24.7972C26.2402 25.5594 25.9421 26.186 25.6264 26.4537C25.499 26.5601 25.3693 26.6092 25.2465 26.5893C25.1775 26.5777 25.1132 26.5426 25.0571 26.49C24.3662 28.6422 23.0475 30.7839 21.3852 32.0862C20.3926 32.8613 19.2785 33.3382 18.1001 33.3382C16.9475 33.3382 15.8567 32.8811 14.8806 32.1365C13.1878 30.84 11.8446 28.6691 11.1443 26.4911C11.0882 26.5438 11.0239 26.5788 10.9549 26.5893C10.8123 26.6151 10.6603 26.5426 10.5154 26.3976C10.2231 26.1042 9.95306 25.5091 9.82564 24.7972C9.81745 24.7504 9.81278 24.706 9.80693 24.6593C9.81745 24.1636 9.8385 23.6796 9.8724 23.2015Z" fill="black"/>
<path d="M76.3526 51.5259C76.9616 50.3779 77.0937 48.9751 76.7185 47.6879C73.9607 38.1988 68.8648 37.8715 67.7683 37.6166C65.6079 37.1081 62.9927 37.3244 61.5992 36.8883C61.3537 38.9341 57.421 40.5579 52.6069 40.5579C47.7916 40.5579 43.8589 38.933 43.6146 36.8883C42.2211 37.3267 39.606 37.1081 37.4444 37.6166C36.3478 37.8715 31.252 38.1988 28.4942 47.6879C28.1201 48.9762 28.2522 50.3779 28.8613 51.5259C31.1175 55.7941 42.9763 57.1104 52.5765 57.1104C52.587 57.1104 52.5964 57.1104 52.6069 57.1104C52.6163 57.1104 52.6268 57.1104 52.6373 57.1104C62.2352 57.1116 74.0963 55.7953 76.3526 51.5259Z" fill="black"/>
<path d="M135.685 47.5571L134.79 45.1817L133.896 47.5571L133.258 44.6079H133.546L133.968 46.5901L134.79 44.4474L135.609 46.5901L136.034 44.6079H136.319L135.685 47.5571ZM138.826 47.3364H138.545V44.6079H138.826V45.8357H140.066V44.6079H140.347V47.3364H140.066V46.1166H138.826V47.3364ZM144.455 47.3364H142.834V44.6079H144.455V44.8687H143.115V45.8397H144.415V46.1045H143.115V47.0756H144.455V47.3364ZM147.222 45.9882H147.856C148.015 45.9882 148.144 45.9347 148.246 45.8277C148.35 45.7176 148.402 45.583 148.402 45.4241C148.402 45.2652 148.353 45.1342 148.254 45.0312C148.155 44.9283 148.022 44.8768 147.856 44.8768H147.222V45.9882V45.9882ZM148.683 45.4305C148.683 45.6693 148.598 45.868 148.428 46.0263C148.28 46.1649 148.099 46.2411 147.887 46.2548L148.727 47.3364H148.35L147.55 46.257H147.222V47.3364H146.942V44.6079H147.816C148.059 44.6079 148.263 44.6848 148.428 44.8386C148.598 44.997 148.683 45.1942 148.683 45.4305H148.683ZM152.63 47.3364H151.009V44.6079H152.63V44.8687H151.29V45.8397H152.59V46.1045H151.29V47.0756H152.63V47.3364ZM158.367 45.9831H159.001C159.157 45.9831 159.287 45.9303 159.39 45.8246C159.494 45.7174 159.546 45.5832 159.546 45.4222C159.546 45.2611 159.497 45.1298 159.398 45.0281C159.299 44.9265 159.166 44.8756 159.001 44.8756H158.367V45.9831ZM159.827 45.4294C159.827 45.6682 159.742 45.8669 159.572 46.0252C159.407 46.179 159.203 46.2559 158.961 46.2559H158.367V47.3353H158.086V44.6068H158.961C159.202 44.6068 159.406 44.6831 159.572 44.8355C159.742 44.991 159.827 45.1889 159.827 45.4294V45.4294ZM162.374 45.9882H163.008C163.166 45.9882 163.296 45.9347 163.397 45.8277C163.502 45.7176 163.554 45.583 163.554 45.4241C163.554 45.2652 163.504 45.1342 163.406 45.0312C163.307 44.9283 163.174 44.8768 163.008 44.8768H162.374V45.9882V45.9882ZM163.835 45.4305C163.835 45.6693 163.75 45.868 163.58 46.0263C163.431 46.1649 163.251 46.2411 163.039 46.2548L163.879 47.3364H163.502L162.702 46.257H162.374V47.3364H162.093V44.6079H162.968C163.211 44.6079 163.415 44.6848 163.58 44.8386C163.75 44.997 163.835 45.1942 163.835 45.4305H163.835ZM168.565 45.9641C168.565 45.6565 168.455 45.393 168.236 45.1737C168.016 44.9543 167.752 44.8446 167.441 44.8446C167.134 44.8446 166.87 44.9543 166.651 45.1737C166.431 45.393 166.322 45.6565 166.322 45.9641C166.322 46.2744 166.431 46.5392 166.651 46.7586C166.87 46.9779 167.134 47.0876 167.441 47.0876C167.752 47.0876 168.016 46.9779 168.236 46.7586C168.455 46.5392 168.565 46.2744 168.565 45.9641ZM168.846 45.9641C168.846 46.1567 168.809 46.3386 168.735 46.5098C168.662 46.681 168.561 46.8301 168.434 46.9572C168.307 47.0842 168.158 47.1846 167.987 47.2581C167.816 47.3317 167.634 47.3685 167.441 47.3685C167.249 47.3685 167.067 47.3317 166.898 47.2581C166.728 47.1846 166.579 47.0843 166.452 46.9572C166.325 46.8301 166.225 46.681 166.151 46.5098C166.078 46.3386 166.041 46.1567 166.041 45.9641C166.041 45.7715 166.078 45.5896 166.151 45.4184C166.225 45.2472 166.325 45.0988 166.452 44.973C166.579 44.8473 166.728 44.7477 166.898 44.6741C167.067 44.6005 167.249 44.5638 167.441 44.5638C167.634 44.5638 167.816 44.6005 167.987 44.6741C168.158 44.7477 168.307 44.8473 168.434 44.973C168.561 45.0988 168.662 45.2472 168.735 45.4184C168.809 45.5896 168.846 45.7715 168.846 45.9641V45.9641ZM173.716 46.5018C173.615 46.7629 173.449 46.9736 173.218 47.1337C172.986 47.2956 172.73 47.3765 172.452 47.3765C172.074 47.3765 171.752 47.2374 171.485 46.9592C171.223 46.6856 171.092 46.358 171.092 45.9761C171.092 45.7862 171.127 45.6063 171.196 45.4365C171.266 45.2666 171.362 45.1175 171.485 44.9891C171.752 44.7109 172.074 44.5718 172.452 44.5718C172.731 44.5718 172.985 44.6514 173.214 44.8105C173.443 44.9697 173.609 45.179 173.712 45.4385H173.403C173.255 45.1679 173.035 44.9893 172.743 44.9028C172.648 44.8747 172.538 44.8607 172.412 44.8607C172.286 44.8607 172.158 44.8908 172.027 44.951C171.896 45.0111 171.781 45.0921 171.684 45.1937C171.476 45.4095 171.373 45.6704 171.373 45.9761C171.373 46.2793 171.476 46.5387 171.684 46.7546C171.897 46.9766 172.153 47.0876 172.452 47.0876C172.655 47.0876 172.842 47.0341 173.012 46.9271C173.182 46.8201 173.313 46.6783 173.407 46.5018H173.716V46.5018ZM176.303 45.9882H176.937C177.095 45.9882 177.225 45.9347 177.326 45.8277C177.431 45.7176 177.483 45.583 177.483 45.4241C177.483 45.2652 177.433 45.1342 177.334 45.0312C177.235 44.9283 177.103 44.8768 176.937 44.8768H176.303V45.9882V45.9882ZM177.764 45.4305C177.764 45.6693 177.679 45.868 177.509 46.0263C177.36 46.1649 177.18 46.2411 176.968 46.2548L177.808 47.3364H177.431L176.631 46.257H176.303V47.3364H176.022V44.6079H176.897C177.14 44.6079 177.344 44.6848 177.509 44.8386C177.679 44.997 177.764 45.1942 177.764 45.4305H177.764ZM180.532 46.3333H181.524L181.029 45.0774L180.532 46.3333ZM182.225 47.3364H181.92L181.627 46.5941H180.428L180.134 47.3364H179.829L181.029 44.4193L182.225 47.3364ZM185.088 46.0494C184.532 45.9204 184.254 45.6817 184.254 45.3333C184.254 45.0771 184.344 44.8854 184.523 44.7584C184.702 44.6313 184.913 44.5678 185.155 44.5678C185.685 44.5678 186.001 44.7657 186.1 45.1616H185.796C185.742 44.9262 185.528 44.8085 185.155 44.8085C184.892 44.8085 184.707 44.8867 184.603 45.043C184.563 45.1007 184.543 45.1742 184.544 45.2635C184.543 45.4305 184.634 45.56 184.816 45.6517C184.902 45.6973 185.084 45.7561 185.362 45.8281C185.64 45.9001 185.842 45.9804 185.967 46.069C186.141 46.1917 186.229 46.3647 186.229 46.5881C186.229 46.8622 186.12 47.0697 185.903 47.2103C185.721 47.3291 185.497 47.3885 185.229 47.3885C184.625 47.3885 184.274 47.1585 184.178 46.6984H184.51C184.561 46.9873 184.801 47.1318 185.229 47.1318C185.534 47.1318 185.747 47.0469 185.869 46.8773C185.916 46.8115 185.939 46.7218 185.939 46.6081C185.939 46.4944 185.895 46.402 185.808 46.3309C185.681 46.228 185.442 46.1342 185.088 46.0495L185.088 46.0494ZM188.298 44.8607V44.5999H188.96H189.241H189.903V44.8607H189.241V47.3283H188.96V44.8607H188.298ZM192.45 47.3364H192.169V44.6079H192.45V47.3364ZM195.218 45.3261V47.3364H194.937V44.4354L196.47 46.6141V44.6079H196.751V47.5049L195.218 45.3261ZM199.679 46.3333H200.672L200.176 45.0774L199.679 46.3333ZM201.372 47.3364H201.067L200.774 46.5941H199.576L199.282 47.3364H198.977L200.176 44.4193L201.372 47.3364ZM203.008 44.8607V44.5999H203.67H203.951H204.613V44.8607H203.951V47.3283H203.67V44.8607H203.008ZM207.16 47.3364H206.88V44.6079H207.16V47.3364ZM212.051 45.9641C212.051 45.6565 211.941 45.393 211.722 45.1737C211.502 44.9543 211.238 44.8446 210.927 44.8446C210.62 44.8446 210.356 44.9543 210.137 45.1737C209.918 45.393 209.808 45.6565 209.808 45.9641C209.808 46.2744 209.918 46.5392 210.137 46.7586C210.356 46.9779 210.62 47.0876 210.927 47.0876C211.238 47.0876 211.502 46.9779 211.722 46.7586C211.941 46.5392 212.051 46.2744 212.051 45.9641ZM212.332 45.9641C212.332 46.1567 212.295 46.3386 212.221 46.5098C212.148 46.681 212.047 46.8301 211.92 46.9572C211.793 47.0842 211.644 47.1846 211.473 47.2581C211.302 47.3317 211.12 47.3685 210.927 47.3685C210.735 47.3685 210.554 47.3317 210.384 47.2581C210.214 47.1846 210.065 47.0843 209.938 46.9572C209.811 46.8301 209.711 46.681 209.637 46.5098C209.564 46.3386 209.527 46.1567 209.527 45.9641C209.527 45.7715 209.564 45.5896 209.637 45.4184C209.711 45.2472 209.811 45.0988 209.938 44.973C210.065 44.8473 210.214 44.7477 210.384 44.6741C210.554 44.6005 210.735 44.5638 210.927 44.5638C211.12 44.5638 211.302 44.6005 211.473 44.6741C211.644 44.7477 211.793 44.8473 211.92 44.973C212.047 45.0988 212.148 45.2472 212.221 45.4184C212.295 45.5896 212.332 45.7715 212.332 45.9641V45.9641ZM214.979 45.3261V47.3364H214.698V44.4354L216.231 46.6141V44.6079H216.512V47.5049L214.979 45.3261ZM222.248 47.3364H221.967V44.6079H222.248V47.3364ZM225.493 46.0494C224.936 45.9204 224.658 45.6817 224.658 45.3333C224.659 45.0771 224.748 44.8854 224.928 44.7584C225.107 44.6313 225.317 44.5678 225.56 44.5678C226.09 44.5678 226.405 44.7657 226.505 45.1616H226.201C226.147 44.9262 225.933 44.8085 225.56 44.8085C225.296 44.8085 225.112 44.8867 225.007 45.043C224.968 45.1007 224.948 45.1742 224.948 45.2635C224.948 45.4305 225.038 45.56 225.221 45.6517C225.307 45.6973 225.489 45.7561 225.767 45.8281C226.045 45.9001 226.246 45.9804 226.371 46.069C226.546 46.1917 226.633 46.3647 226.633 46.5881C226.633 46.8622 226.525 47.0697 226.308 47.2103C226.126 47.3291 225.901 47.3885 225.633 47.3885C225.029 47.3885 224.679 47.1585 224.583 46.6984H224.915C224.966 46.9873 225.206 47.1318 225.634 47.1318C225.939 47.1318 226.152 47.0469 226.273 46.8773C226.32 46.8115 226.344 46.7218 226.344 46.6081C226.344 46.4944 226.3 46.402 226.212 46.3309C226.086 46.228 225.846 46.1342 225.493 46.0495L225.493 46.0494ZM232.333 46.3333H233.326L232.83 45.0774L232.333 46.3333ZM234.026 47.3364H233.721L233.429 46.5941H232.23L231.936 47.3364H231.631L232.831 44.4193L234.026 47.3364ZM240.2 47.5009L238.96 44.6079H239.265L240.2 46.8067L241.131 44.6079H241.436L240.2 47.5009ZM243.943 47.3364H243.662V44.6079H243.943V47.3364ZM246.71 45.9882H247.344C247.502 45.9882 247.632 45.9347 247.734 45.8277C247.838 45.7176 247.89 45.583 247.89 45.4241C247.89 45.2652 247.841 45.1342 247.742 45.0312C247.643 44.9283 247.51 44.8768 247.344 44.8768H246.71V45.9882V45.9882ZM248.171 45.4305C248.171 45.6693 248.086 45.868 247.916 46.0263C247.767 46.1649 247.587 46.2411 247.375 46.2548L248.215 47.3364H247.838L247.038 46.257H246.71V47.3364H246.429V44.6079H247.304C247.547 44.6079 247.751 44.6848 247.916 44.8386C248.086 44.997 248.171 45.1942 248.171 45.4305H248.171ZM250.277 44.8607V44.5999H250.939H251.22H251.882V44.8607H251.22V47.3283H250.939V44.8607H250.277ZM256.122 46.4336C256.122 46.7291 256.026 46.9618 255.833 47.1317C255.651 47.2922 255.409 47.3725 255.107 47.3725C254.802 47.3725 254.558 47.2922 254.377 47.1317C254.184 46.9618 254.088 46.7291 254.088 46.4336V44.6079H254.369V46.4737C254.369 46.6787 254.443 46.8365 254.591 46.9472C254.72 47.0435 254.892 47.0916 255.107 47.0916C255.44 47.0916 255.665 46.9793 255.781 46.7546C255.821 46.677 255.841 46.5834 255.841 46.4737V44.6079H256.122V46.4336V46.4336ZM260.17 47.3364H258.549V44.6079H260.17V44.8687H258.83V45.8397H260.13V46.1045H258.83V47.0756H260.17V47.3364Z" fill="black"/>
<path d="M122.183 29.4033C123.013 29.4033 123.698 29.3341 124.239 29.1958C124.78 29.0574 125.214 28.8687 125.541 28.6297C125.868 28.3907 126.095 28.1077 126.221 27.7806C126.346 27.4536 126.409 27.0888 126.409 26.6862C126.409 25.8309 126.007 25.1201 125.202 24.5541C124.397 23.988 123.013 23.3779 121.051 22.7238C120.195 22.4219 119.34 22.076 118.484 21.686C117.629 21.2961 116.862 20.8055 116.182 20.2143C115.503 19.6231 114.95 18.9061 114.522 18.0633C114.094 17.2205 113.88 16.1953 113.88 14.9877C113.88 13.7801 114.107 12.692 114.56 11.7234C115.013 10.7548 115.654 9.93087 116.484 9.25159C117.315 8.57232 118.321 8.05029 119.503 7.6855C120.686 7.3207 122.019 7.13831 123.503 7.13831C125.265 7.13831 126.787 7.32699 128.07 7.70436C129.353 8.08174 130.409 8.49685 131.24 8.9497L129.541 13.5914C128.812 13.214 128 12.8807 127.107 12.5913C126.214 12.302 125.139 12.1574 123.881 12.1574C122.472 12.1574 121.459 12.3523 120.843 12.7423C120.227 13.1322 119.918 13.7298 119.918 14.5348C119.918 15.0128 120.032 15.4154 120.258 15.7424C120.484 16.0695 120.805 16.3651 121.22 16.6292C121.635 16.8934 122.113 17.1324 122.654 17.3462C123.195 17.5601 123.793 17.7802 124.447 18.0066C125.805 18.5098 126.988 19.0067 127.994 19.4973C129.001 19.9879 129.837 20.5602 130.504 21.2143C131.17 21.8684 131.667 22.6358 131.994 23.5163C132.321 24.3968 132.485 25.4661 132.485 26.724C132.485 29.1643 131.63 31.0575 129.919 32.4034C128.208 33.7494 125.629 34.4224 122.183 34.4224C121.025 34.4224 119.981 34.3532 119.05 34.2148C118.12 34.0765 117.296 33.9066 116.579 33.7054C115.862 33.5041 115.245 33.2903 114.73 33.0638C114.214 32.8374 113.78 32.6236 113.428 32.4223L115.088 27.7429C115.868 28.1706 116.83 28.5542 117.975 28.8939C119.12 29.2335 120.522 29.4033 122.183 29.4033V29.4033ZM154.486 28.8373V33.8941H137.013V7.7421H142.9V28.8373H154.486ZM175.77 33.8941C175.493 32.9884 175.185 32.0575 174.845 31.1015C174.505 30.1455 174.172 29.1895 173.845 28.2335H163.656C163.329 29.1895 162.995 30.1455 162.656 31.1015C162.316 32.0575 162.008 32.9884 161.731 33.8941H155.618C156.599 31.0763 157.53 28.4725 158.41 26.0824C159.291 23.6924 160.153 21.4407 160.995 19.3275C161.838 17.2142 162.668 15.2078 163.486 13.3084C164.304 11.4089 165.153 9.55349 166.033 7.7421H171.656C172.512 9.55349 173.354 11.4089 174.185 13.3084C175.015 15.2078 175.851 17.2142 176.694 19.3275C177.537 21.4407 178.399 23.6924 179.279 26.0824C180.16 28.4725 181.09 31.0763 182.072 33.8941H175.77ZM168.713 13.6669C168.587 14.0442 168.398 14.56 168.147 15.2141C167.895 15.8682 167.606 16.6229 167.279 17.4783C166.952 18.3337 166.593 19.2771 166.203 20.3086C165.813 21.3401 165.417 22.4219 165.014 23.554H172.449C172.046 22.4219 171.656 21.3401 171.279 20.3086C170.901 19.2771 170.543 18.3337 170.203 17.4783C169.864 16.6229 169.568 15.8682 169.316 15.2141C169.065 14.56 168.864 14.0442 168.713 13.6669V13.6669ZM197.393 34.4224C193.141 34.4224 189.902 33.2399 187.676 30.8751C185.449 28.5102 184.336 25.1516 184.336 20.7992C184.336 18.6356 184.676 16.7047 185.355 15.0065C186.034 13.3084 186.965 11.8743 188.147 10.7045C189.33 9.53462 190.739 8.6478 192.374 8.044C194.009 7.4402 195.783 7.13831 197.695 7.13831C198.802 7.13831 199.808 7.22007 200.714 7.3836C201.62 7.54713 202.412 7.73581 203.091 7.94966C203.771 8.1635 204.337 8.38364 204.789 8.61006C205.242 8.83648 205.569 9.01259 205.771 9.13838L204.072 13.8933C203.267 13.4656 202.33 13.1008 201.261 12.7989C200.192 12.497 198.978 12.3461 197.619 12.3461C196.714 12.3461 195.827 12.497 194.959 12.7989C194.091 13.1008 193.324 13.5851 192.657 14.2518C191.99 14.9185 191.456 15.7801 191.053 16.8368C190.651 17.8934 190.449 19.1765 190.449 20.686C190.449 21.8936 190.581 23.0194 190.846 24.0635C191.11 25.1076 191.537 26.007 192.129 26.7617C192.72 27.5164 193.493 28.114 194.449 28.5542C195.405 28.9945 196.563 29.2146 197.921 29.2146C198.777 29.2146 199.544 29.1643 200.223 29.0637C200.903 28.963 201.506 28.8435 202.035 28.7052C202.563 28.5668 203.028 28.4096 203.431 28.2335C203.833 28.0574 204.198 27.8938 204.525 27.7429L206.148 32.46C205.318 32.9632 204.148 33.416 202.638 33.8186C201.129 34.2211 199.38 34.4224 197.393 34.4224V34.4224ZM225.356 33.8941C224.828 33.0387 224.205 32.1141 223.488 31.1204C222.771 30.1266 221.991 29.1329 221.149 28.1391C220.306 27.1454 219.432 26.1894 218.526 25.2711C217.62 24.3528 216.714 23.5415 215.809 22.837V33.8941H209.922V7.7421H215.809V17.6293C217.343 16.0192 218.884 14.3398 220.432 12.5913C221.979 10.8429 223.419 9.22644 224.752 7.7421H231.734C229.948 9.85539 228.155 11.8932 226.356 13.8555C224.558 15.8179 222.664 17.7928 220.677 19.7803C222.765 21.5162 224.784 23.5792 226.734 25.9692C228.683 28.3592 230.551 31.0009 232.338 33.8941H225.356V33.8941ZM235.734 33.8941V7.7421H253.395V12.6857H241.621V17.818H252.074V22.6483H241.621V28.9505H254.263V33.8941H235.734V33.8941ZM266.263 7.4402C270.188 7.4402 273.195 8.13834 275.283 9.53462C277.371 10.9309 278.415 13.1008 278.415 16.0443C278.415 17.8809 277.993 19.3715 277.151 20.5162C276.308 21.6609 275.094 22.5603 273.509 23.2144C274.037 23.8685 274.591 24.617 275.169 25.4598C275.748 26.3026 276.32 27.1831 276.887 28.1014C277.453 29.0197 278 29.9757 278.528 30.9694C279.056 31.9632 279.547 32.938 280 33.8941H273.396C272.918 33.0387 272.434 32.1707 271.943 31.2902C271.452 30.4096 270.949 29.5543 270.433 28.724C269.918 27.8938 269.408 27.1076 268.905 26.3655C268.402 25.6233 267.899 24.9503 267.396 24.3465H264.49V33.8941H258.603V8.11948C259.886 7.86789 261.213 7.69179 262.584 7.59115C263.955 7.49052 265.182 7.4402 266.263 7.4402V7.4402ZM266.603 12.4593C266.175 12.4593 265.792 12.4718 265.452 12.497C265.112 12.5222 264.792 12.5473 264.49 12.5725V19.6671H266.15C268.364 19.6671 269.949 19.3904 270.905 18.8369C271.861 18.2834 272.339 17.34 272.339 16.0066C272.339 14.7235 271.855 13.8115 270.886 13.2706C269.918 12.7297 268.49 12.4593 266.603 12.4593Z" fill="black"/>
</svg>
