<svg width="346" height="32" viewBox="0 0 346 32" fill="none" xmlns="http://www.w3.org/2000/svg">
<path fill-rule="evenodd" clip-rule="evenodd" d="M25.0801 5.24C25.0801 5.53333 24.6801 5.68 23.8801 5.68C23.7793 5.67955 23.6786 5.67555 23.5781 5.668C23.3521 5.652 23.0877 5.61967 22.7851 5.571C22.7634 5.56738 22.7417 5.56372 22.7201 5.56C22.2401 5.48 21.3467 5.36 20.0401 5.2C19.1928 5.0976 18.3418 5.02888 17.4891 4.994C16.9464 4.97116 16.4032 4.95983 15.8601 4.96C14.3801 4.96 13.0401 5.35333 11.8401 6.14C10.6401 6.92667 9.6334 7.93333 8.82006 9.16C8.09397 10.2635 7.52013 11.46 7.11406 12.717C7.05276 12.9036 6.99475 13.0913 6.94006 13.28C6.604 14.4251 6.39343 15.6034 6.31206 16.794C6.29093 17.1156 6.28026 17.4377 6.28007 17.76C6.27512 18.5762 6.34137 19.3913 6.47807 20.196C6.6374 21.1 6.8934 21.912 7.24606 22.632C7.48314 23.1205 7.77646 23.5796 8.12006 24C8.62254 24.6155 9.24217 25.1251 9.94305 25.4993C10.6439 25.8735 11.4121 26.1049 12.2031 26.18C12.5472 26.2207 12.8935 26.2408 13.2401 26.24C14.5559 26.2541 15.8666 26.0724 17.1291 25.701C19.2108 25.0763 21.0329 23.7913 22.3201 22.04C22.9601 21.1867 23.4801 20.24 23.8801 19.2C23.204 19.1221 22.5395 18.965 21.9001 18.732C20.9335 18.3855 20.0725 17.7959 19.4001 17.02C18.5189 15.9878 17.9863 14.7038 17.8781 13.351C17.8524 13.0814 17.8397 12.8108 17.8401 12.54C17.8354 11.9446 17.8995 11.3507 18.0311 10.77C18.2323 9.85215 18.6776 9.00568 19.3201 8.32C20.0818 7.52053 21.0908 7.00123 22.1841 6.846C22.5532 6.78753 22.9264 6.75878 23.3001 6.76C23.8788 6.75304 24.4546 6.84225 25.0041 7.024C25.8739 7.32472 26.6231 7.89859 27.1401 8.66C28.0281 9.91867 28.4747 11.4997 28.4801 13.403C28.4801 13.4153 28.4801 13.4277 28.4801 13.44C28.4805 13.8412 28.4702 14.2424 28.4491 14.643C28.4369 14.8689 28.4205 15.0947 28.4001 15.32C28.5955 15.2339 28.7873 15.1398 28.9751 15.038C29.2091 14.9093 29.4174 14.7767 29.6001 14.64C29.7146 14.553 29.8379 14.4782 29.9681 14.417C30.1467 14.3343 30.3257 14.289 30.5051 14.281C30.5234 14.2803 30.5417 14.2799 30.5601 14.28C31.0934 14.28 31.3601 14.5067 31.3601 14.96C31.3601 15.8933 31.0467 16.7 30.4201 17.38C30.0122 17.8176 29.5331 18.1827 29.0031 18.46C28.6556 18.6434 28.2933 18.7973 27.9201 18.92C27.597 20.5565 27.0576 22.1428 26.3161 23.637C25.4563 25.3579 24.2688 26.8943 22.8201 28.16C20.9853 29.7407 18.7599 30.7998 16.3761 31.227C15.1709 31.4547 13.9466 31.5663 12.7201 31.56C11.365 31.5714 10.0138 31.4152 8.69706 31.095C6.52704 30.5803 4.55839 29.4336 3.04006 27.8C1.47982 26.0832 0.478837 23.9323 0.170065 21.633C0.0546316 20.854 -0.00219453 20.0675 6.47979e-05 19.28C6.47979e-05 16.9333 0.380065 14.6667 1.14006 12.48C1.7945 10.5622 2.75896 8.7647 3.99506 7.159C4.1206 6.9971 4.24895 6.83741 4.38006 6.68C5.78006 5 7.48006 3.65333 9.48006 2.64C11.4801 1.62667 13.7267 1.12 16.2201 1.12C17.1552 1.1157 18.0891 1.18592 19.0131 1.33C20.3244 1.54067 21.4934 1.91067 22.5201 2.44C22.864 2.61505 23.1973 2.8104 23.5181 3.025C24.5594 3.731 25.0801 4.46933 25.0801 5.24ZM138.76 18.56H138.2C137.803 21.0435 137.57 23.5507 137.505 26.065C137.488 26.6699 137.48 27.2749 137.48 27.88C137.484 28.253 137.44 28.625 137.35 28.987C137.255 29.3901 137.07 29.7663 136.808 30.0873C136.547 30.4083 136.216 30.6657 135.84 30.84C135.472 31.0145 135.104 31.1872 134.734 31.358C134.616 31.4122 134.498 31.4662 134.38 31.52C133.913 31.7333 133.413 31.84 132.88 31.84C131.547 31.84 130.88 30.64 130.88 28.24C130.886 27.3429 130.949 26.447 131.069 25.558C131.311 23.698 131.783 21.5507 132.486 19.116C132.497 19.0773 132.509 19.0387 132.52 19C131.512 19.1147 130.607 19.2293 129.805 19.344C129.677 19.3623 129.548 19.3809 129.42 19.4C128.527 19.5333 127.827 19.6 127.32 19.6C127.235 19.6004 127.149 19.5957 127.064 19.586C126.892 19.5653 126.764 19.5217 126.68 19.455C126.641 19.425 126.61 19.3862 126.589 19.3419C126.569 19.2976 126.558 19.249 126.56 19.2C126.56 18.4 127.213 17.5867 128.52 16.76C129.523 16.138 130.791 15.6293 132.322 15.234C132.851 15.0983 133.384 14.9802 133.92 14.88C134.568 13.2106 135.319 11.5828 136.168 10.006C138.196 6.282 140.513 3.65333 143.12 2.12C144.453 1.32 145.867 0.92 147.36 0.92C148.074 0.922323 148.785 0.98825 149.487 1.117C150.255 1.26367 150.936 1.49167 151.53 1.801C152.146 2.1168 152.693 2.5515 153.14 3.08C153.862 3.95345 154.373 4.98134 154.633 6.084C154.832 6.88 154.935 7.752 154.94 8.7C154.94 8.72133 154.94 8.74267 154.94 8.764C154.94 10.972 154.297 13.8 153.01 17.248C152.941 17.4324 152.871 17.6164 152.8 17.8C152.267 19.24 151.773 20.5467 151.32 21.72C151.194 22.0442 151.079 22.3727 150.976 22.705C150.776 23.357 150.665 23.9197 150.644 24.393C150.641 24.4486 150.64 24.5043 150.64 24.56C150.64 24.7487 150.644 24.9375 150.653 25.126C150.67 25.4907 150.706 25.7957 150.76 26.041C150.772 26.0944 150.785 26.1474 150.8 26.2C150.827 26.2991 150.87 26.3929 150.929 26.477C151.066 26.6657 151.276 26.76 151.56 26.76C151.757 26.7452 151.948 26.6864 152.119 26.588C153.008 26.1393 154.515 24.81 156.64 22.6C156.729 22.5002 156.821 22.4029 156.916 22.308C157.255 21.9693 157.51 21.8 157.68 21.8C157.766 21.8015 157.85 21.8265 157.923 21.8721C157.996 21.9177 158.055 21.9823 158.094 22.059C158.271 22.3463 158.36 22.8733 158.36 23.64C158.357 23.9012 158.321 24.161 158.252 24.413C158.127 24.889 157.894 25.419 157.553 26.003C157.542 26.022 157.531 26.041 157.52 26.06C156.96 27.0067 156.233 27.8733 155.34 28.66C154.447 29.4467 153.453 30.0933 152.36 30.6C151.267 31.1067 150.2 31.36 149.16 31.36C148.778 31.3624 148.395 31.335 148.017 31.278C147.631 31.2173 147.287 31.1227 146.984 30.994C146.557 30.8227 146.184 30.5419 145.9 30.18C145.643 29.8342 145.446 29.4474 145.317 29.036C145.202 28.6827 145.118 28.2897 145.065 27.857C145.02 27.473 144.998 27.0866 145 26.7C145 25.2193 145.56 22.7127 146.679 19.18C146.719 19.0532 146.759 18.9266 146.8 18.8C143.257 18.646 140.642 18.566 138.953 18.56C138.889 18.5599 138.824 18.5599 138.76 18.56ZM231.92 9.32V10.2C231.922 10.3941 231.943 10.5874 231.985 10.777C232.025 10.9683 232.084 11.1707 232.163 11.384C232.228 11.559 232.3 11.7312 232.38 11.9C232.687 12.5533 233.067 13.0933 233.52 13.52C233.756 13.4736 233.994 13.4412 234.233 13.423C234.435 13.4074 234.638 13.3997 234.84 13.4C235.228 13.3979 235.615 13.4176 236.001 13.459C236.78 13.5477 237.362 13.7353 237.748 14.022C237.93 14.1497 238.077 14.3204 238.177 14.519C238.277 14.7176 238.326 14.9378 238.32 15.16C238.32 16.3707 237.264 17.0423 235.152 17.175C234.875 17.192 234.598 17.2004 234.32 17.2C233.733 17.2 233.093 17.0933 232.4 16.88C231.627 17.4133 231.033 18.08 230.62 18.88C230.468 19.1826 230.349 19.5012 230.267 19.83C230.1 20.4707 230.012 21.2443 230.001 22.151C230 22.214 230 22.277 230 22.34C229.994 22.8171 230.065 23.292 230.208 23.747C230.476 24.563 231.036 25.2514 231.78 25.68C232.623 26.1848 233.558 26.5162 234.53 26.655C235.01 26.7264 235.495 26.7615 235.98 26.76C236.5 26.7622 237.019 26.7314 237.535 26.668C238.067 26.6 238.555 26.4947 238.999 26.352C239.309 26.2535 239.611 26.1291 239.9 25.98C240.9 25.46 241.773 24.8933 242.52 24.28C243.092 23.8107 243.582 23.3683 243.989 22.953C244.109 22.8313 244.226 22.7069 244.34 22.58C244.427 22.4826 244.517 22.3875 244.609 22.295C244.94 21.965 245.19 21.8 245.36 21.8C245.541 21.8 245.694 21.901 245.817 22.103C245.84 22.1409 245.861 22.1799 245.88 22.22C245.937 22.3428 245.98 22.4716 246.009 22.604C246.038 22.7307 246.058 22.8687 246.069 23.018C246.076 23.1185 246.08 23.2192 246.08 23.32C246.073 24.6392 245.609 25.9151 244.766 26.93C244.345 27.4627 243.822 27.9727 243.198 28.46C242.984 28.6269 242.764 28.787 242.54 28.94C240.761 30.1423 238.725 30.9124 236.596 31.189C235.762 31.3048 234.922 31.3619 234.08 31.36C232.924 31.3682 231.768 31.2782 230.627 31.091C229.436 30.8863 228.388 30.5643 227.482 30.125C226.036 29.4607 224.853 28.3328 224.12 26.92C223.827 26.3395 223.617 25.7208 223.496 25.082C223.379 24.488 223.32 23.8473 223.32 23.16C223.299 21.9245 223.54 20.6986 224.027 19.563C224.652 18.1617 225.691 17.0093 227.144 16.106C227.747 15.7354 228.381 15.4188 229.04 15.16C228.264 14.6238 227.612 13.9283 227.126 13.1199C226.64 12.3115 226.332 11.4088 226.223 10.472C226.153 9.98449 226.119 9.49252 226.12 9C226.12 7.69333 226.48 6.48 227.2 5.36C226.715 4.82097 226.285 4.23586 225.914 3.613C225.796 3.41263 225.684 3.20818 225.58 3C225.167 2.17333 224.96 1.54667 224.96 1.12C224.96 0.373333 225.227 0 225.76 0C225.889 0.00284462 226.017 0.0313992 226.135 0.084C226.349 0.173333 226.584 0.334333 226.841 0.567C226.944 0.660992 227.044 0.758724 227.14 0.86C227.27 0.996598 227.4 1.13293 227.531 1.269C227.851 1.60167 228.13 1.88767 228.367 2.127C228.405 2.16474 228.442 2.2024 228.48 2.24C228.827 2.58667 229.187 2.86667 229.56 3.08C231.203 2.08724 233.033 1.44164 234.935 1.183C235.805 1.05882 236.682 0.997663 237.56 1C240.627 1 242.667 1.85333 243.68 3.56C243.891 3.92756 244.041 4.32667 244.125 4.742C244.202 5.10467 244.24 5.49733 244.24 5.92C244.24 7.33333 243.627 8.52 242.4 9.48C241.173 10.44 239.56 10.92 237.56 10.92C235.721 10.9167 233.926 10.3576 232.41 9.316C232.258 9.21431 232.107 9.10895 231.96 9C231.933 9.10667 231.92 9.21333 231.92 9.32ZM301.64 9.32V10.2C301.642 10.3941 301.663 10.5874 301.705 10.777C301.745 10.9683 301.804 11.1707 301.883 11.384C301.948 11.559 302.02 11.7312 302.1 11.9C302.407 12.5533 302.787 13.0933 303.24 13.52C303.476 13.4736 303.714 13.4412 303.953 13.423C304.155 13.4074 304.358 13.3997 304.56 13.4C304.948 13.3979 305.335 13.4176 305.721 13.459C306.5 13.5477 307.082 13.7353 307.468 14.022C307.65 14.1497 307.797 14.3204 307.897 14.519C307.997 14.7176 308.046 14.9378 308.04 15.16C308.04 16.3707 306.984 17.0423 304.872 17.175C304.595 17.192 304.318 17.2004 304.04 17.2C303.453 17.2 302.813 17.0933 302.12 16.88C301.347 17.4133 300.753 18.08 300.34 18.88C300.188 19.1826 300.069 19.5012 299.987 19.83C299.82 20.4707 299.732 21.2443 299.721 22.151C299.72 22.214 299.72 22.277 299.72 22.34C299.714 22.8171 299.785 23.292 299.928 23.747C300.196 24.563 300.756 25.2514 301.5 25.68C302.343 26.1848 303.278 26.5162 304.25 26.655C304.73 26.7264 305.215 26.7615 305.7 26.76C306.22 26.7622 306.739 26.7314 307.255 26.668C307.787 26.6 308.275 26.4947 308.719 26.352C309.029 26.2535 309.331 26.1291 309.62 25.98C310.62 25.46 311.493 24.8933 312.24 24.28C312.812 23.8107 313.302 23.3683 313.709 22.953C313.829 22.8313 313.946 22.7069 314.06 22.58C314.147 22.4826 314.237 22.3875 314.329 22.295C314.66 21.965 314.91 21.8 315.08 21.8C315.261 21.8 315.414 21.901 315.537 22.103C315.56 22.1409 315.581 22.1799 315.6 22.22C315.657 22.3428 315.7 22.4716 315.729 22.604C315.758 22.7307 315.778 22.8687 315.789 23.018C315.796 23.1185 315.8 23.2192 315.8 23.32C315.793 24.6392 315.329 25.9151 314.486 26.93C314.065 27.4627 313.542 27.9727 312.918 28.46C312.704 28.6269 312.484 28.787 312.26 28.94C310.481 30.1423 308.445 30.9124 306.316 31.189C305.482 31.3048 304.642 31.3619 303.8 31.36C302.644 31.3682 301.488 31.2782 300.347 31.091C299.156 30.8863 298.108 30.5643 297.202 30.125C295.756 29.4607 294.573 28.3328 293.84 26.92C293.547 26.3395 293.337 25.7208 293.216 25.082C293.099 24.488 293.04 23.8473 293.04 23.16C293.019 21.9245 293.26 20.6986 293.747 19.563C294.372 18.1617 295.411 17.0093 296.864 16.106C297.467 15.7354 298.101 15.4188 298.76 15.16C297.984 14.6238 297.332 13.9283 296.846 13.1199C296.36 12.3115 296.052 11.4088 295.943 10.472C295.873 9.98449 295.839 9.49252 295.84 9C295.84 7.69333 296.2 6.48 296.92 5.36C296.435 4.82097 296.005 4.23586 295.634 3.613C295.516 3.41263 295.404 3.20818 295.3 3C294.887 2.17333 294.68 1.54667 294.68 1.12C294.68 0.373333 294.947 0 295.48 0C295.609 0.00284462 295.737 0.0313992 295.855 0.084C296.069 0.173333 296.304 0.334333 296.561 0.567C296.664 0.660992 296.764 0.758724 296.86 0.86C296.99 0.996598 297.12 1.13293 297.251 1.269C297.571 1.60167 297.85 1.88767 298.087 2.127C298.125 2.16474 298.162 2.2024 298.2 2.24C298.547 2.58667 298.907 2.86667 299.28 3.08C300.923 2.08724 302.753 1.44164 304.655 1.183C305.525 1.05882 306.402 0.997663 307.28 1C310.347 1 312.387 1.85333 313.4 3.56C313.611 3.92756 313.761 4.32667 313.845 4.742C313.922 5.10467 313.96 5.49733 313.96 5.92C313.96 7.33333 313.347 8.52 312.12 9.48C310.893 10.44 309.28 10.92 307.28 10.92C305.441 10.9167 303.646 10.3576 302.13 9.316C301.978 9.21431 301.827 9.10895 301.68 9C301.653 9.10667 301.64 9.21333 301.64 9.32ZM46.0801 1.28L58.0801 1.48C58.7481 1.48 59.1061 1.72133 59.1541 2.204C59.158 2.24254 59.16 2.28126 59.1601 2.32C59.159 2.3669 59.1526 2.41353 59.1411 2.459C59.1024 2.62633 59.0021 2.86667 58.8401 3.18C58.6267 3.59333 58.4401 4.04 58.2801 4.52C58.1712 4.83984 57.9902 5.13033 57.7511 5.369C57.4797 5.63233 57.1351 5.80767 56.7171 5.895C56.4942 5.93985 56.2674 5.96164 56.0401 5.96H54.7601L49.4401 5.92H46.3601C46.1474 7.434 45.5117 9.9 44.4531 13.318C44.4487 13.332 44.4444 13.346 44.4401 13.36L51.7601 13.48C52.1867 13.48 52.4001 13.7333 52.4001 14.24C52.3995 14.2869 52.3955 14.3337 52.3881 14.38C52.3634 14.5453 52.3007 14.7787 52.2001 15.08C52.0667 15.48 51.9467 15.8933 51.8401 16.32C51.7964 16.5075 51.733 16.6898 51.6511 16.864C51.4017 17.3813 51.0114 17.64 50.4801 17.64L44.4001 17.36H43.8801C43.7574 17.36 43.6194 17.3677 43.4661 17.383C43.4173 17.3881 43.3687 17.3938 43.3201 17.4C42.9337 18.8089 42.5829 20.2274 42.2681 21.654C41.6674 24.4013 41.3301 26.744 41.2561 28.682C41.2456 28.9479 41.2403 29.2139 41.2401 29.48C41.2401 30.8807 40.0244 31.658 37.5931 31.812C37.2758 31.8313 36.9579 31.8407 36.6401 31.84C36.4806 31.8424 36.3217 31.8184 36.1701 31.769C35.7854 31.637 35.5487 31.3207 35.4601 30.82C35.4198 30.5872 35.3881 30.3531 35.3651 30.118C35.3084 29.556 35.2801 28.89 35.2801 28.12C35.2801 25.9947 35.7297 23.1263 36.6291 19.515C36.7487 19.0356 36.8724 18.5573 37.0001 18.08C36.5012 18.1493 36.0011 18.21 35.5001 18.262C35.0527 18.308 34.6341 18.3427 34.2441 18.366C33.8831 18.3879 33.5217 18.3993 33.1601 18.4C33.0963 18.4005 33.0327 18.3948 32.9701 18.383C32.7501 18.3403 32.6401 18.2127 32.6401 18C32.6443 17.7435 32.7102 17.4917 32.8321 17.266C33.0087 16.922 33.3064 16.5687 33.7251 16.206C33.7826 16.1564 33.8409 16.1077 33.9001 16.06C34.1942 15.8269 34.5096 15.622 34.8421 15.448C35.5321 15.0787 36.4061 14.7393 37.4641 14.43C37.6422 14.378 37.8208 14.328 38.0001 14.28C38.8534 11.24 39.8267 8.45333 40.9201 5.92C39.822 5.96549 38.7362 6.16891 37.6961 6.524C36.4507 6.95509 35.3129 7.64953 34.3601 8.56C34.0334 8.88667 33.7537 9.15867 33.5211 9.376C33.4546 9.43793 33.3876 9.49926 33.3201 9.56C33.2583 9.61614 33.1935 9.66888 33.1261 9.718C32.9774 9.82467 32.8404 9.889 32.7151 9.911C32.6837 9.91676 32.6519 9.91977 32.6201 9.92C32.5356 9.91857 32.4535 9.89212 32.3841 9.844C32.2874 9.78067 32.1927 9.678 32.1001 9.536C32.0792 9.50454 32.0592 9.47253 32.0401 9.44C31.9575 9.29512 31.8949 9.1397 31.8541 8.978C31.7914 8.74133 31.7601 8.46867 31.7601 8.16C31.7707 7.57485 31.8966 6.99754 32.1307 6.46114C32.3648 5.92473 32.7023 5.43976 33.1241 5.034C33.5481 4.59867 34.0711 4.19133 34.6931 3.812C35.0897 3.57214 35.4993 3.35448 35.9201 3.16C37.2586 2.54719 38.6646 2.09407 40.1091 1.81C41.8437 1.456 43.7521 1.279 45.8341 1.279C45.9161 1.27906 45.9981 1.27939 46.0801 1.28ZM71.2801 1.28L83.2801 1.48C83.9481 1.48 84.3061 1.72133 84.3541 2.204C84.358 2.24254 84.36 2.28126 84.3601 2.32C84.359 2.3669 84.3526 2.41353 84.3411 2.459C84.3024 2.62633 84.2021 2.86667 84.0401 3.18C83.8267 3.59333 83.6401 4.04 83.4801 4.52C83.3712 4.83984 83.1902 5.13033 82.9511 5.369C82.6797 5.63233 82.3351 5.80767 81.9171 5.895C81.6942 5.93985 81.4674 5.96164 81.2401 5.96H79.9601L74.6401 5.92H71.5601C71.3474 7.434 70.7117 9.9 69.6531 13.318C69.6487 13.332 69.6444 13.346 69.6401 13.36L76.9601 13.48C77.3867 13.48 77.6001 13.7333 77.6001 14.24C77.5995 14.2869 77.5955 14.3337 77.5881 14.38C77.5634 14.5453 77.5007 14.7787 77.4001 15.08C77.2667 15.48 77.1467 15.8933 77.0401 16.32C76.9964 16.5075 76.933 16.6898 76.8511 16.864C76.6017 17.3813 76.2114 17.64 75.6801 17.64L69.6001 17.36H69.0801C68.9574 17.36 68.8194 17.3677 68.6661 17.383C68.6173 17.3881 68.5687 17.3938 68.5201 17.4C68.1337 18.8089 67.7829 20.2274 67.4681 21.654C66.8674 24.4013 66.5301 26.744 66.4561 28.682C66.4456 28.9479 66.4403 29.2139 66.4401 29.48C66.4401 30.8807 65.2244 31.658 62.7931 31.812C62.4758 31.8313 62.1579 31.8407 61.8401 31.84C61.6806 31.8424 61.5217 31.8184 61.3701 31.769C60.9854 31.637 60.7487 31.3207 60.6601 30.82C60.6198 30.5872 60.5881 30.3531 60.5651 30.118C60.5084 29.556 60.4801 28.89 60.4801 28.12C60.4801 25.9947 60.9297 23.1263 61.8291 19.515C61.9487 19.0356 62.0724 18.5573 62.2001 18.08C61.7012 18.1493 61.2011 18.21 60.7001 18.262C60.2527 18.308 59.8341 18.3427 59.4441 18.366C59.0831 18.3879 58.7217 18.3993 58.3601 18.4C58.2963 18.4005 58.2327 18.3948 58.1701 18.383C57.9501 18.3403 57.8401 18.2127 57.8401 18C57.8443 17.7435 57.9102 17.4917 58.0321 17.266C58.2087 16.922 58.5064 16.5687 58.9251 16.206C58.9826 16.1564 59.0409 16.1077 59.1001 16.06C59.3942 15.8269 59.7096 15.622 60.0421 15.448C60.7321 15.0787 61.6061 14.7393 62.6641 14.43C62.8422 14.378 63.0208 14.328 63.2001 14.28C64.0534 11.24 65.0267 8.45333 66.1201 5.92C65.022 5.96549 63.9362 6.16891 62.8961 6.524C61.6507 6.95509 60.5129 7.64953 59.5601 8.56C59.2334 8.88667 58.9537 9.15867 58.7211 9.376C58.6546 9.43793 58.5876 9.49926 58.5201 9.56C58.4583 9.61614 58.3935 9.66888 58.3261 9.718C58.1774 9.82467 58.0404 9.889 57.9151 9.911C57.8837 9.91676 57.8519 9.91977 57.8201 9.92C57.7356 9.91857 57.6535 9.89212 57.5841 9.844C57.4874 9.78067 57.3927 9.678 57.3001 9.536C57.2792 9.50454 57.2592 9.47253 57.2401 9.44C57.1575 9.29512 57.0949 9.1397 57.0541 8.978C56.9914 8.74133 56.9601 8.46867 56.9601 8.16C56.9707 7.57485 57.0966 6.99754 57.3307 6.46114C57.5648 5.92473 57.9023 5.43976 58.3241 5.034C58.7481 4.59867 59.2711 4.19133 59.8931 3.812C60.2897 3.57214 60.6993 3.35448 61.1201 3.16C62.4586 2.54719 63.8646 2.09407 65.3091 1.81C67.0437 1.456 68.9521 1.279 71.0341 1.279C71.1161 1.27906 71.1981 1.27939 71.2801 1.28ZM181.73 22.06C181.693 21.9823 181.635 21.9166 181.563 21.8706C181.49 21.8246 181.406 21.8001 181.32 21.8C181.091 21.8 180.813 21.971 180.486 22.313C180.386 22.418 180.291 22.5271 180.2 22.64C179.747 23.2 179.233 23.8133 178.66 24.48C178.087 25.1467 177.473 25.76 176.82 26.32C176.777 26.3571 176.733 26.3934 176.688 26.429C176.451 26.6183 176.213 26.771 175.974 26.887C175.622 27.0634 175.234 27.1568 174.84 27.16C174.674 27.1599 174.507 27.1563 174.341 27.149C173.277 27.103 172.363 26.9067 171.6 26.56C170.72 26.16 169.813 25.72 168.88 25.24C168.979 24.744 169.052 24.2747 169.099 23.832C169.139 23.4626 169.159 23.0915 169.16 22.72C169.16 22.0239 169.168 21.3279 169.184 20.632C169.237 18.4327 169.375 16.4753 169.6 14.76C170.503 14.7404 171.405 14.6693 172.3 14.547C173.536 14.3737 174.657 14.0993 175.663 13.724C176.979 13.254 178.183 12.5172 179.2 11.56C179.247 11.5145 179.294 11.4685 179.34 11.422C180.025 10.7615 180.567 9.96851 180.935 9.09133C181.303 8.21414 181.489 7.27119 181.48 6.32C181.482 5.91685 181.451 5.51421 181.388 5.116C181.048 3.024 179.761 1.72933 177.526 1.232C176.748 1.06897 175.955 0.991173 175.16 1C174.04 1 172.973 1.24 171.96 1.72C169.89 2.71667 168.137 4.588 166.701 7.334C166.099 8.50299 165.584 9.71497 165.16 10.96C165.157 10.9593 165.155 10.9587 165.152 10.958C164.507 10.8053 163.885 10.5707 163.3 10.26C163.076 10.1386 162.841 10.0375 162.598 9.958C162.289 9.85549 161.966 9.80217 161.64 9.8C161.593 9.79973 161.546 9.8075 161.501 9.823C161.22 9.92167 161.08 10.3407 161.08 11.08C161.08 11.1041 161.082 11.1281 161.085 11.152C161.128 11.4647 161.439 11.8807 162.02 12.4C162.325 12.6712 162.648 12.9224 162.985 13.152C163.4 13.4346 163.833 13.6911 164.28 13.92C163.56 17.0133 163.2 20.1867 163.2 23.44C162.48 23.36 161.707 23.32 160.88 23.32C160.179 23.32 159.535 23.3897 158.946 23.529C158.273 23.6815 157.634 23.9564 157.06 24.34C156.424 24.7595 155.955 25.3897 155.737 26.12C155.615 26.5356 155.555 26.9669 155.56 27.4C155.558 27.8018 155.596 28.2028 155.673 28.597C155.819 29.3762 156.181 30.0984 156.72 30.68C157.011 30.988 157.358 31.2386 157.741 31.419C158.116 31.599 158.542 31.7307 159.02 31.814C159.463 31.8876 159.911 31.923 160.36 31.92C160.457 31.92 160.555 31.9187 160.652 31.916C161.78 31.9042 162.894 31.6606 163.924 31.2003C164.954 30.7399 165.879 30.0727 166.64 29.24C168.987 30.6533 171.053 31.36 172.84 31.36C172.86 31.3597 172.879 31.3594 172.899 31.359C174.089 31.3607 175.268 31.1226 176.364 30.6589C177.461 30.1952 178.452 29.5154 179.28 28.66C180.05 27.884 180.652 27.0967 181.085 26.298C181.624 25.3393 181.911 24.2597 181.92 23.16C181.921 23.0111 181.915 22.8623 181.901 22.714C181.873 22.43 181.816 22.212 181.73 22.06ZM221.41 22.06C221.373 21.9823 221.315 21.9166 221.243 21.8706C221.17 21.8246 221.086 21.8001 221 21.8C220.771 21.8 220.493 21.971 220.166 22.313C220.066 22.418 219.971 22.5271 219.88 22.64C219.427 23.2 218.913 23.8133 218.34 24.48C217.767 25.1467 217.153 25.76 216.5 26.32C216.457 26.3571 216.413 26.3934 216.368 26.429C216.131 26.6183 215.893 26.771 215.654 26.887C215.302 27.0634 214.914 27.1568 214.52 27.16C214.354 27.1599 214.187 27.1563 214.021 27.149C212.957 27.103 212.043 26.9067 211.28 26.56C210.4 26.16 209.493 25.72 208.56 25.24C208.659 24.744 208.732 24.2747 208.779 23.832C208.819 23.4626 208.839 23.0915 208.84 22.72C208.84 22.0239 208.848 21.3279 208.864 20.632C208.917 18.4327 209.055 16.4753 209.28 14.76C210.183 14.7404 211.085 14.6693 211.98 14.547C213.216 14.3737 214.337 14.0993 215.343 13.724C216.659 13.254 217.863 12.5172 218.88 11.56C218.927 11.5145 218.974 11.4685 219.02 11.422C219.705 10.7615 220.247 9.96851 220.615 9.09133C220.983 8.21414 221.169 7.27119 221.16 6.32C221.162 5.91685 221.131 5.51421 221.068 5.116C220.728 3.024 219.441 1.72933 217.206 1.232C216.428 1.06897 215.635 0.991173 214.84 1C213.72 1 212.653 1.24 211.64 1.72C209.57 2.71667 207.817 4.588 206.381 7.334C205.779 8.50299 205.264 9.71497 204.84 10.96C204.837 10.9593 204.835 10.9587 204.832 10.958C204.187 10.8053 203.565 10.5707 202.98 10.26C202.756 10.1386 202.521 10.0375 202.278 9.958C201.969 9.85549 201.646 9.80217 201.32 9.8C201.273 9.79973 201.226 9.8075 201.181 9.823C200.9 9.92167 200.76 10.3407 200.76 11.08C200.76 11.1041 200.762 11.1281 200.765 11.152C200.808 11.4647 201.119 11.8807 201.7 12.4C202.005 12.6712 202.328 12.9224 202.665 13.152C203.08 13.4346 203.513 13.6911 203.96 13.92C203.24 17.0133 202.88 20.1867 202.88 23.44C202.16 23.36 201.387 23.32 200.56 23.32C199.859 23.32 199.215 23.3897 198.626 23.529C197.953 23.6815 197.314 23.9564 196.74 24.34C196.104 24.7595 195.635 25.3897 195.417 26.12C195.295 26.5356 195.235 26.9669 195.24 27.4C195.238 27.8018 195.276 28.2028 195.353 28.597C195.498 29.3762 195.861 30.0984 196.4 30.68C196.691 30.988 197.038 31.2386 197.421 31.419C197.796 31.599 198.222 31.7307 198.7 31.814C199.143 31.8876 199.591 31.923 200.04 31.92C200.137 31.92 200.235 31.9187 200.332 31.916C201.46 31.9042 202.574 31.6606 203.604 31.2003C204.634 30.7399 205.559 30.0727 206.32 29.24C208.667 30.6533 210.733 31.36 212.52 31.36C212.54 31.3597 212.559 31.3594 212.579 31.359C213.769 31.3607 214.948 31.1226 216.044 30.6589C217.141 30.1952 218.132 29.5154 218.96 28.66C219.73 27.884 220.332 27.0967 220.765 26.298C221.304 25.3393 221.591 24.2597 221.6 23.16C221.601 23.0111 221.595 22.8623 221.581 22.714C221.553 22.43 221.496 22.212 221.41 22.06ZM99.8001 2.36L101.04 3.56C101.36 3.88 101.693 4.14667 102.04 4.36C103.12 3.42812 104.326 2.65469 105.624 2.063C107.182 1.36054 108.871 0.998152 110.58 1C111.26 0.99538 111.939 1.04554 112.61 1.15C113.3 1.26267 113.91 1.43867 114.441 1.678C115.328 2.05055 116.061 2.71442 116.52 3.56C116.684 3.89374 116.804 4.24737 116.876 4.612C116.943 4.934 116.983 5.28067 116.996 5.652C116.999 5.7413 117 5.83065 117 5.92C117 7.33333 116.387 8.52 115.16 9.48C114.479 10.0028 113.7 10.3831 112.869 10.598C112.277 10.7593 111.632 10.86 110.935 10.9C110.697 10.9135 110.459 10.9202 110.22 10.92C108.815 10.9136 107.416 10.7284 106.057 10.369C105.291 10.1693 104.538 9.92595 103.8 9.64C102.508 11.8004 101.63 14.1823 101.21 16.664C101.043 17.6875 100.959 18.7229 100.96 19.76C100.951 20.6565 101.032 21.5516 101.201 22.432C101.763 25.194 103.307 26.725 105.833 27.025C106.154 27.0624 106.477 27.0807 106.8 27.08C108.938 27.0744 111.027 26.4462 112.813 25.272C113.068 25.1095 113.317 24.9388 113.56 24.76C114.181 24.3031 114.741 23.7688 115.227 23.17C115.3 23.0812 115.371 22.9912 115.44 22.9C115.985 22.186 116.448 21.8197 116.829 21.801C116.839 21.8004 116.85 21.8001 116.86 21.8C117.247 21.8 117.44 22.38 117.44 23.54C117.44 24.7 117.113 25.7933 116.46 26.82C115.807 27.8467 114.947 28.7067 113.88 29.4C112.205 30.4904 110.302 31.1818 108.318 31.421C107.589 31.5152 106.855 31.5616 106.12 31.56C105.011 31.5672 103.904 31.4691 102.813 31.267C101.53 31.0203 100.388 30.6177 99.3851 30.059C98.772 29.7192 98.1999 29.3102 97.6801 28.84C96.2168 27.5048 95.2401 25.7202 94.9041 23.768C94.7506 22.9477 94.6756 22.1146 94.6801 21.28C94.6801 17.3067 95.6401 13.5333 97.5601 9.96C98.2001 8.78667 98.9201 7.70667 99.7201 6.72C99.1067 6 98.6201 5.24667 98.2601 4.46C97.9001 3.67333 97.7201 3.08 97.7201 2.68C97.719 2.5503 97.7297 2.42077 97.7521 2.293C97.8334 1.85233 98.0701 1.62167 98.4621 1.601C98.4814 1.60017 98.5007 1.59983 98.5201 1.6C98.66 1.61224 98.7967 1.64879 98.9241 1.708C99.1507 1.80867 99.3934 1.97867 99.6521 2.218C99.7023 2.26434 99.7517 2.31169 99.8001 2.36ZM344.774 22.059C344.735 21.9823 344.676 21.9177 344.603 21.8721C344.53 21.8265 344.446 21.8015 344.36 21.8C344.19 21.8 343.931 21.965 343.583 22.295C343.486 22.3875 343.392 22.4826 343.3 22.58C342.807 23.1 342.253 23.6667 341.64 24.28C341.027 24.8933 340.407 25.46 339.78 25.98C339.153 26.5 338.62 26.76 338.18 26.76C337.987 26.7603 337.798 26.7036 337.637 26.597C337.424 26.459 337.231 26.2333 337.06 25.92C336.869 25.57 336.69 25.1627 336.524 24.698C336.419 24.402 336.324 24.1025 336.24 23.8C336 22.9467 335.753 22.0133 335.5 21C335.247 19.9867 334.92 19.04 334.52 18.16C336.333 17.4933 337.853 16.4 339.08 14.88C339.778 14.0125 340.282 13.0061 340.56 11.928C340.774 11.12 340.881 10.246 340.881 9.306C340.881 9.25733 340.881 9.20866 340.88 9.16C340.88 8.91404 340.871 8.66817 340.851 8.423C340.656 6.01567 339.479 4.18133 337.32 2.92C336.937 2.69899 336.541 2.50098 336.135 2.327C335.156 1.90567 334.07 1.59667 332.879 1.4C331.795 1.2263 330.698 1.13936 329.6 1.14C329.576 1.13995 329.553 1.13995 329.529 1.14C326.551 1.10475 323.637 2.00736 321.2 3.72C320.988 3.86861 320.78 4.023 320.577 4.183C320.25 4.44033 319.957 4.69767 319.696 4.955C319.429 5.21659 319.182 5.49916 318.96 5.8C318.924 5.84905 318.889 5.89838 318.854 5.948C318.535 6.39867 318.333 6.76067 318.248 7.034C318.219 7.11976 318.203 7.20943 318.2 7.3C318.197 7.38478 318.221 7.46829 318.268 7.539C318.342 7.64633 318.478 7.71467 318.675 7.744C318.756 7.75528 318.838 7.76062 318.92 7.76C319.4 7.76 319.913 7.61333 320.46 7.32C320.497 7.30028 320.533 7.28061 320.57 7.261C321.09 6.98367 321.68 6.68333 322.34 6.36C322.441 6.31017 322.543 6.26183 322.646 6.215C322.961 6.07233 323.301 5.934 323.665 5.8C324.066 5.65411 324.471 5.52071 324.88 5.4C324.984 5.36913 325.089 5.34079 325.194 5.315C325.841 5.15633 326.644 5.051 327.604 4.999C328.116 4.9721 328.628 4.9591 329.14 4.96C330.125 4.96 330.983 5.08033 331.716 5.321C332.322 5.51075 332.881 5.82363 333.36 6.24C333.925 6.73478 334.344 7.37495 334.571 8.091C334.728 8.59899 334.805 9.1283 334.8 9.66C334.8 10.5073 334.718 11.2513 334.553 11.892C334.452 12.2991 334.3 12.6916 334.1 13.06C333.633 13.9 333.027 14.6267 332.28 15.24C332.078 15.115 331.864 15.0114 331.641 14.931C331.236 14.7879 330.809 14.7165 330.38 14.72C329.673 14.72 329.047 14.8533 328.5 15.12C328.438 15.15 328.378 15.1834 328.32 15.22C328.063 15.3827 327.884 15.5923 327.781 15.849C327.711 16.0312 327.677 16.225 327.68 16.42C327.676 16.7818 327.782 17.1362 327.985 17.436C328.117 17.6274 328.277 17.7974 328.46 17.94C328.589 18.043 328.725 18.1378 328.866 18.224C329.301 18.4863 329.78 18.6678 330.28 18.76C330.573 19.7733 330.867 21.5533 331.16 24.1C331.453 26.6467 331.827 28.3733 332.28 29.28C332.6 29.92 333.04 30.4267 333.6 30.8C333.793 30.9272 334.001 31.0303 334.219 31.107C334.471 31.197 334.751 31.263 335.058 31.305C335.344 31.3428 335.632 31.3612 335.92 31.36C336.483 31.357 337.044 31.2807 337.587 31.133C338.086 30.998 338.572 30.8197 339.04 30.6C340.133 30.0933 341.127 29.4467 342.02 28.66C342.913 27.8733 343.64 27.0067 344.2 26.06C344.211 26.041 344.222 26.022 344.233 26.003C344.574 25.419 344.807 24.889 344.932 24.413C345.001 24.161 345.037 23.9012 345.04 23.64C345.04 22.8733 344.951 22.3463 344.774 22.059ZM256.72 1.36L269.88 1.48C270.548 1.48 270.906 1.72133 270.954 2.204C270.958 2.24254 270.96 2.28126 270.96 2.32C270.959 2.3669 270.953 2.41353 270.941 2.459C270.902 2.62633 270.802 2.86667 270.64 3.18C270.427 3.59333 270.24 4.04 270.08 4.52C269.978 4.81845 269.815 5.09253 269.602 5.325C269.321 5.62233 268.957 5.81533 268.51 5.904C268.309 5.94247 268.105 5.96123 267.9 5.96C267.639 5.95959 267.378 5.95692 267.117 5.952C265.752 5.92733 263.38 5.85 260 5.72C259.959 6.16288 259.91 6.60496 259.852 7.046C259.793 7.50467 259.723 7.99833 259.641 8.527C259.553 9.09224 259.459 9.6566 259.36 10.22C259.04 12.0467 258.693 14.04 258.32 16.2C258.053 17.8143 257.813 19.4328 257.599 21.055C257.194 24.159 256.969 26.813 256.926 29.017C256.923 29.1713 256.921 29.3257 256.92 29.48C256.92 30.8807 255.704 31.658 253.273 31.812C252.956 31.8313 252.638 31.8407 252.32 31.84C252.161 31.8424 252.002 31.8184 251.85 31.769C251.465 31.637 251.229 31.3207 251.14 30.82C251.092 30.5433 251.055 30.2647 251.03 29.985C251.003 29.6863 250.983 29.3647 250.972 29.02C250.964 28.7734 250.96 28.5267 250.96 28.28C250.961 27.6345 250.989 26.9893 251.042 26.346C251.078 25.903 251.124 25.4609 251.18 25.02C251.327 23.86 251.52 22.6 251.76 21.24C252.031 19.6956 252.347 18.1596 252.709 16.634C253.014 15.343 253.345 14.0581 253.7 12.78C253.944 11.8961 254.206 11.0173 254.486 10.144C255 8.54667 255.511 7.20867 256.02 6.13C256.079 6.006 256.139 5.88265 256.2 5.76C254.52 5.86667 252.853 6.16667 251.2 6.66C249.677 7.114 248.562 7.444 247.854 7.65C247.796 7.66671 247.738 7.68338 247.68 7.7C247.477 7.75899 247.272 7.81169 247.065 7.858C246.64 7.95267 246.272 8 245.96 8C245.507 8 245.28 7.85333 245.28 7.56C245.28 7.21333 245.547 6.7 246.08 6.02C246.495 5.49133 247.046 4.95867 247.735 4.422C247.94 4.26287 248.148 4.10882 248.36 3.96C250.867 2.25333 253.653 1.38667 256.72 1.36ZM280.4 1.36L293.56 1.48C294.228 1.48 294.586 1.72133 294.634 2.204C294.638 2.24254 294.64 2.28126 294.64 2.32C294.639 2.3669 294.633 2.41353 294.621 2.459C294.582 2.62633 294.482 2.86667 294.32 3.18C294.107 3.59333 293.92 4.04 293.76 4.52C293.658 4.81845 293.495 5.09253 293.282 5.325C293.001 5.62233 292.637 5.81533 292.19 5.904C291.989 5.94247 291.785 5.96123 291.58 5.96C291.319 5.95959 291.058 5.95692 290.797 5.952C289.432 5.92733 287.06 5.85 283.68 5.72C283.639 6.16288 283.59 6.60496 283.532 7.046C283.473 7.50467 283.403 7.99833 283.321 8.527C283.233 9.09224 283.139 9.6566 283.04 10.22C282.72 12.0467 282.373 14.04 282 16.2C281.733 17.8143 281.493 19.4328 281.279 21.055C280.874 24.159 280.649 26.813 280.606 29.017C280.603 29.1713 280.601 29.3257 280.6 29.48C280.6 30.8807 279.384 31.658 276.953 31.812C276.636 31.8313 276.318 31.8407 276 31.84C275.841 31.8424 275.682 31.8184 275.53 31.769C275.145 31.637 274.909 31.3207 274.82 30.82C274.772 30.5433 274.735 30.2647 274.71 29.985C274.683 29.6863 274.663 29.3647 274.652 29.02C274.644 28.7734 274.64 28.5267 274.64 28.28C274.641 27.6345 274.669 26.9893 274.722 26.346C274.758 25.903 274.804 25.4609 274.86 25.02C275.007 23.86 275.2 22.6 275.44 21.24C275.711 19.6956 276.027 18.1596 276.389 16.634C276.694 15.343 277.025 14.0581 277.38 12.78C277.624 11.8961 277.886 11.0173 278.166 10.144C278.68 8.54667 279.191 7.20867 279.7 6.13C279.759 6.006 279.819 5.88265 279.88 5.76C278.2 5.86667 276.533 6.16667 274.88 6.66C273.357 7.114 272.242 7.444 271.534 7.65C271.476 7.66671 271.418 7.68338 271.36 7.7C271.157 7.75899 270.952 7.81169 270.745 7.858C270.32 7.95267 269.952 8 269.64 8C269.187 8 268.96 7.85333 268.96 7.56C268.96 7.21333 269.227 6.7 269.76 6.02C270.175 5.49133 270.726 4.95867 271.415 4.422C271.62 4.26287 271.828 4.10882 272.04 3.96C274.547 2.25333 277.333 1.38667 280.4 1.36ZM87.5881 30.871C87.68 30.7022 87.7255 30.5121 87.7201 30.32C87.7202 29.9306 87.7272 29.5412 87.7411 29.152C87.8277 26.6973 88.1767 23.732 88.7881 20.256C89.1145 18.4167 89.4786 16.5844 89.8801 14.76C90.2801 13.0267 90.6401 11.4133 90.9601 9.92C91.0044 9.71341 91.0484 9.50674 91.0921 9.3C91.3541 8.05667 91.5767 6.93667 91.7601 5.94C91.9134 5.106 92.0117 4.42033 92.0551 3.883C92.0708 3.69574 92.0792 3.50792 92.0801 3.32C92.0802 3.17699 92.0722 3.03409 92.0561 2.892C92.0141 2.49469 91.8931 2.1098 91.7001 1.76C91.5994 1.57933 91.4891 1.43467 91.3691 1.326C91.2052 1.16883 90.9871 1.08074 90.7601 1.08C89.8801 1.08 89.1734 1.38 88.6401 1.98C88.5231 2.1117 88.4104 2.2471 88.3021 2.386C87.9405 2.84459 87.6375 3.34646 87.4001 3.88C87.1786 4.37767 86.9705 4.88119 86.7761 5.39C86.1067 7.12867 85.4134 9.31033 84.6961 11.935C84.3611 13.1657 84.0424 14.4009 83.7401 15.64C83.4428 16.8479 83.1627 18.0601 82.9001 19.276C82.1601 22.7227 81.7801 25.3507 81.7601 27.16C81.7601 28.128 81.8804 28.921 82.1211 29.539C82.2465 29.8791 82.4363 30.1918 82.6801 30.46C83.1401 30.95 83.9001 31.2563 84.9601 31.379C85.3452 31.4215 85.7325 31.4418 86.1201 31.44C86.2806 31.4408 86.4409 31.4308 86.6001 31.41C87.0907 31.3433 87.4201 31.1637 87.5881 30.871ZM122.668 30.871C122.76 30.7022 122.806 30.5121 122.8 30.32C122.8 29.9306 122.807 29.5412 122.821 29.152C122.908 26.6973 123.257 23.732 123.868 20.256C124.195 18.4167 124.559 16.5844 124.96 14.76C125.36 13.0267 125.72 11.4133 126.04 9.92C126.084 9.71341 126.128 9.50674 126.172 9.3C126.434 8.05667 126.657 6.93667 126.84 5.94C126.993 5.106 127.092 4.42033 127.135 3.883C127.151 3.69574 127.159 3.50792 127.16 3.32C127.16 3.17699 127.152 3.03409 127.136 2.892C127.094 2.49469 126.973 2.1098 126.78 1.76C126.679 1.57933 126.569 1.43467 126.449 1.326C126.285 1.16883 126.067 1.08074 125.84 1.08C124.96 1.08 124.253 1.38 123.72 1.98C123.603 2.1117 123.49 2.2471 123.382 2.386C123.02 2.84459 122.717 3.34646 122.48 3.88C122.259 4.37767 122.051 4.88119 121.856 5.39C121.187 7.12867 120.493 9.31033 119.776 11.935C119.441 13.1657 119.122 14.4009 118.82 15.64C118.523 16.8479 118.243 18.0601 117.98 19.276C117.24 22.7227 116.86 25.3507 116.84 27.16C116.84 28.128 116.96 28.921 117.201 29.539C117.326 29.8791 117.516 30.1918 117.76 30.46C118.22 30.95 118.98 31.2563 120.04 31.379C120.425 31.4215 120.813 31.4418 121.2 31.44C121.361 31.4408 121.521 31.4308 121.68 31.41C122.171 31.3433 122.5 31.1637 122.668 30.871ZM324.96 22V27.88C324.964 28.253 324.92 28.625 324.83 28.987C324.735 29.3901 324.55 29.7663 324.288 30.0873C324.027 30.4083 323.696 30.6657 323.32 30.84C322.952 31.0145 322.584 31.1872 322.214 31.358C322.096 31.4122 321.978 31.4662 321.86 31.52C321.528 31.6699 321.174 31.7674 320.812 31.809C320.636 31.83 320.458 31.8404 320.28 31.84C319.167 31.84 318.607 30.5683 318.6 28.025C318.6 28.01 318.6 27.995 318.6 27.98C318.606 27.0123 318.677 26.0461 318.813 25.088C318.948 24.0913 319.148 23.0223 319.413 21.881C319.7 20.6563 320.029 19.4419 320.4 18.24C321.6 14.32 322.853 11.3333 324.16 9.28C324.379 8.952 324.678 8.61533 325.057 8.27C325.143 8.19164 325.231 8.11496 325.32 8.04C325.531 7.85926 325.767 7.71004 326.021 7.597C326.317 7.46674 326.637 7.39964 326.96 7.4C327.027 7.40102 327.093 7.42048 327.15 7.45626C327.208 7.49205 327.254 7.5428 327.284 7.603C327.402 7.79767 327.467 8.132 327.478 8.606C327.479 8.65732 327.48 8.70866 327.48 8.76C327.48 9.66667 327.427 10.52 327.32 11.32C327.08 12.8667 326.773 14.3067 326.4 15.64C325.44 19.2667 324.96 21.3867 324.96 22ZM139.08 14.56L148.16 14.68C148.687 12.9953 149.005 11.643 149.116 10.623C149.144 10.3763 149.159 10.1283 149.16 9.88C149.164 9.45799 149.129 9.03653 149.055 8.621C148.792 7.22233 148.035 6.48433 146.786 6.407C146.711 6.40233 146.635 6.39999 146.56 6.4C145.805 6.39705 145.057 6.54603 144.361 6.83809C143.665 7.13014 143.034 7.55929 142.507 8.1C142.337 8.26592 142.174 8.43943 142.02 8.62C140.921 9.90333 140.038 11.5627 139.371 13.598C139.267 13.9165 139.17 14.2372 139.08 14.56ZM175.08 4.92C174.576 4.92526 174.079 5.04172 173.624 5.26106C173.17 5.48041 172.77 5.79725 172.452 6.189C171.722 7.00833 171.106 8.22433 170.604 9.837C170.452 10.3266 170.318 10.8212 170.2 11.32C170.995 11.2583 171.782 11.1149 172.548 10.892C173.444 10.6322 174.292 10.2297 175.06 9.7C175.363 9.49172 175.65 9.26249 175.921 9.014C176.667 8.32 177.04 7.622 177.04 6.92C177.044 6.65731 177.012 6.39532 176.946 6.141C176.723 5.327 176.101 4.92 175.08 4.92ZM214.76 4.92C214.256 4.92526 213.759 5.04172 213.304 5.26106C212.85 5.48041 212.45 5.79725 212.132 6.189C211.402 7.00833 210.786 8.22433 210.284 9.837C210.132 10.3266 209.998 10.8212 209.88 11.32C210.675 11.2583 211.462 11.1149 212.228 10.892C213.124 10.6322 213.972 10.2297 214.74 9.7C215.043 9.49172 215.33 9.26249 215.601 9.014C216.347 8.32 216.72 7.622 216.72 6.92C216.724 6.65731 216.692 6.39532 216.626 6.141C216.403 5.327 215.781 4.92 214.76 4.92ZM105.72 7.16C106.754 7.49986 107.825 7.7121 108.91 7.792C109.326 7.8243 109.743 7.84031 110.16 7.84C110.433 7.84175 110.705 7.82639 110.976 7.794C112.032 7.66 112.56 7.23533 112.56 6.52C112.565 6.28318 112.522 6.04775 112.434 5.828C112.219 5.326 111.731 5.04167 110.968 4.975C110.846 4.96467 110.723 4.95967 110.6 4.96C109.22 4.96425 107.879 5.417 106.778 6.25C106.402 6.52537 106.049 6.82962 105.72 7.16ZM239.8 6.52C239.811 6.26033 239.744 6.00324 239.608 5.78212C239.471 5.56099 239.271 5.38604 239.034 5.28C238.655 5.08867 238.136 4.983 237.475 4.963C237.397 4.96082 237.318 4.95982 237.24 4.96C235.533 4.96 234.16 5.48 233.12 6.52C233.841 6.96758 234.62 7.31352 235.435 7.548C236.12 7.74148 236.828 7.83974 237.54 7.84C237.797 7.84173 238.053 7.82636 238.308 7.794C238.865 7.71867 239.267 7.552 239.512 7.294C239.609 7.19025 239.684 7.06848 239.733 6.93567C239.783 6.80286 239.805 6.66161 239.8 6.52ZM309.52 6.52C309.531 6.26033 309.464 6.00324 309.328 5.78212C309.191 5.56099 308.991 5.38604 308.754 5.28C308.375 5.08867 307.856 4.983 307.195 4.963C307.117 4.96082 307.038 4.95982 306.96 4.96C305.253 4.96 303.88 5.48 302.84 6.52C303.561 6.96758 304.34 7.31352 305.155 7.548C305.84 7.74148 306.548 7.83974 307.26 7.84C307.517 7.84173 307.773 7.82636 308.028 7.794C308.585 7.71867 308.987 7.552 309.232 7.294C309.329 7.19025 309.404 7.06848 309.453 6.93567C309.503 6.80286 309.525 6.66161 309.52 6.52ZM23.8001 10.28C23.661 10.2737 23.5232 10.3091 23.4044 10.3816C23.2856 10.4541 23.1911 10.5605 23.1331 10.687C23.0297 10.8883 22.9727 11.1653 22.9621 11.518C22.9608 11.5587 22.9601 11.5993 22.9601 11.64C22.9543 12.1255 23.0242 12.609 23.1671 13.073C23.4484 13.9531 24.0634 14.6879 24.8801 15.12C24.9601 14.4 25.0001 13.6533 25.0001 12.88C25.0013 12.5962 24.9882 12.3125 24.9611 12.03C24.8431 10.8633 24.4561 10.28 23.8001 10.28ZM159.44 27.68C159.442 27.8717 159.491 28.0599 159.583 28.228C159.804 28.6093 160.276 28.8 161 28.8C161.988 28.8 162.621 28.2423 162.899 27.127C162.906 27.0981 162.913 27.0691 162.92 27.04C162.725 26.9414 162.525 26.851 162.322 26.769C161.9 26.601 161.531 26.5063 161.214 26.485C161.169 26.4818 161.125 26.4802 161.08 26.48C160.884 26.4784 160.687 26.4951 160.494 26.53C159.813 26.6593 159.461 27.0427 159.44 27.68ZM199.12 27.68C199.122 27.8717 199.171 28.0599 199.263 28.228C199.484 28.6093 199.956 28.8 200.68 28.8C201.668 28.8 202.301 28.2423 202.579 27.127C202.586 27.0981 202.593 27.0691 202.6 27.04C202.405 26.9414 202.205 26.851 202.002 26.769C201.58 26.601 201.211 26.5063 200.894 26.485C200.849 26.4818 200.805 26.4802 200.76 26.48C200.564 26.4784 200.367 26.4951 200.174 26.53C199.493 26.6593 199.141 27.0427 199.12 27.68Z" fill="#3F2626"/>
</svg>
